<?xml version="1.0" encoding="utf-8"?>
<!-- Generator: Adobe Illustrator 16.0.0, SVG Export Plug-In . SVG Version: 6.00 Build 0)  -->
<!DOCTYPE svg PUBLIC "-//W3C//DTD SVG 1.1//EN" "http://www.w3.org/Graphics/SVG/1.1/DTD/svg11.dtd">
<svg version="1.1" id="Layer_1" xmlns="http://www.w3.org/2000/svg" xmlns:xlink="http://www.w3.org/1999/xlink" x="0px" y="0px"
	 width="300px" height="300px" viewBox="0 0 300 300" enable-background="new 0 0 300 300" xml:space="preserve">
<path fill="#303030" d="M94.059,258.739c8.75,4.942,18.589,7.591,28.586,8.209c0.038,11.048,0.038,22.094,0.077,33.178
	c-9.607-0.039-19.174-0.077-28.742-0.12C94.097,286.277,94.097,272.511,94.059,258.739z"/>
<path fill="#303030" d="M176.355,266.91c10.148-0.469,20.221-2.956,29.015-8.171c0,13.771,0.079,27.579,0.116,41.348
	c-9.646,0.039-19.295,0.074-28.938,0.156C176.509,289.116,176.471,278.035,176.355,266.91z"/>
<path fill="#E6E6E6" d="M95.406,4.93c17.259-9.178,38.265-4.59,53.752,5.407c13.979-8.323,31.28-14.12,47.653-8.09
	c15.913,4.316,25.597,17.733,30.775,31.463c16.839,0.934,35.483,5.289,44.537,19.796c9.47,12.019,8.291,27.458,4.5,41.11
	c13.643,10.578,26.225,25.748,22.82,43.287c-1.186,14.001-11.282,25.006-22.733,33.291c3.704,14.197,5.641,30.57-5.097,42.707
	c-9.338,13.849-27.363,18.162-43.905,19.443c-4.458,9.221-8.966,18.942-17.802,25.395c-9.519,5.216-20.42,7.703-31.405,8.172
	c-10.565-0.936-19.743-6.146-28.793-10.815c-9.176,4.826-18.522,10.153-29.339,10.854c-10.821-0.618-21.469-3.266-30.94-8.209
	c-8.881-6.608-13.303-16.604-18.188-25.821c-18.815-0.308-38.896-7.662-46.976-24.465c-7.495-11.394-4.084-24.853-1.349-37.022
	c-13.596-9.998-25.342-24.427-22.562-41.46c-0.463-14.703,11.744-25.087,22.312-34.381c-4.462-15.441-4.968-33.604,7.914-45.894
	c9.429-11.783,25.551-14.779,40.496-15.557C76.294,22.743,82.569,10.53,95.406,4.93z"/>
<path fill="#303030" d="M145.827,55.451c30.802-2.761,56.083,25.631,58.958,54.645c5.214,32.436-15.204,70.509-49.858,74.712
	c-31.272,3.228-57.484-25.047-60.323-54.761C89.275,97.3,110.47,58.368,145.827,55.451z"/>
<path fill="#303030" d="M63.528,70.58c9.021-4.901,18.978-5.989,28.975-3.773c-6.806,10.191-12.252,21.159-15.79,32.903
	C65.978,93.722,60.573,82.753,63.528,70.58z"/>
<path fill="#303030" d="M206.924,66.536c12.723-2.917,26.801-0.817,32.321,12.524c-3.927,7.855-8.324,15.984-16.604,19.951
	C218.982,87.459,213.535,76.647,206.924,66.536z"/>
<circle fill="#F0F0F0" cx="131.179" cy="101.177" r="12"/>
<circle fill="#40C69B" cx="131.179" cy="101.177" r="6.23"/>
<circle fill="#F0F0F0" cx="167.429" cy="101.177" r="11.999"/>
<circle fill="#40C69B" cx="167.429" cy="101.177" r="6.23"/>
</svg>
